<?xml version="1.0" encoding="UTF-8"?>
<svg width="1200pt" height="1200pt" version="1.1" viewBox="0 0 1200 1200" xmlns="http://www.w3.org/2000/svg">
 <path d="m662.5 925c0 23.207-9.2188 45.461-25.629 61.871s-38.664 25.629-61.871 25.629-45.461-9.2188-61.871-25.629-25.629-38.664-25.629-61.871 9.2188-45.461 25.629-61.871 38.664-25.629 61.871-25.629c23.199 0.027344 45.438 9.2539 61.844 25.656 16.402 16.406 25.629 38.645 25.656 61.844zm-87.5-512.5c23.207 0 45.461-9.2188 61.871-25.629s25.629-38.664 25.629-61.871-9.2188-45.461-25.629-61.871-38.664-25.629-61.871-25.629-45.461 9.2188-61.871 25.629-25.629 38.664-25.629 61.871c0.027344 23.199 9.2539 45.438 25.656 61.844 16.406 16.402 38.645 25.629 61.844 25.656zm0 125c-23.207 0-45.461 9.2188-61.871 25.629s-25.629 38.664-25.629 61.871 9.2188 45.461 25.629 61.871 38.664 25.629 61.871 25.629 45.461-9.2188 61.871-25.629 25.629-38.664 25.629-61.871c-0.027344-23.199-9.2539-45.438-25.656-61.844-16.406-16.402-38.645-25.629-61.844-25.656z"/>
</svg>
