<?xml version="1.0" encoding="UTF-8"?>
<svg width="1200pt" height="1200pt" version="1.1" viewBox="0 0 1200 1200" xmlns="http://www.w3.org/2000/svg">
 <g fill="#fff">
  <path d="m934.8 816-147.6 148.8v-772.8c0-9.6016-8.3984-18-18-18-9.6016 0-18 8.3984-18 18v772.8l-146.4-148.8c-7.1992-7.1992-18-7.1992-25.199 0-7.1992 7.1992-7.1992 18 0 25.199l190.8 193.2 189.6-193.2c7.1992-7.1992 7.1992-18 0-25.199s-18-7.1992-25.199 0z"/>
  <path d="m265.2 384 147.6-148.8v772.8c0 9.6016 8.3984 18 18 18 9.6016 0 18-8.3984 18-18v-772.8l146.4 148.8c3.6016 3.6016 8.3984 6 13.199 6 4.8008 0 9.6016-1.1992 12-4.8008 7.1992-7.1992 7.1992-18 0-25.199l-189.6-194.4-192 192c-7.1992 7.1992-7.1992 18 0 25.199 8.3984 8.3984 19.199 8.3984 26.398 1.1992z"/>
 </g>
</svg>
